<svg width="473" height="193" viewBox="0 0 473 193" fill="none" xmlns="http://www.w3.org/2000/svg">
<path d="M0 152.636V129.909L80.4546 2.81818H98.3636V36.2727H87L29.4545 127.364V128.818H139.727V152.636H0ZM88.2727 189V145.727L88.4546 135.364V2.81818H115.091V189H88.2727ZM236.227 192.091C221.864 192.03 209.591 188.242 199.409 180.727C189.227 173.212 181.439 162.273 176.045 147.909C170.652 133.545 167.955 116.242 167.955 96C167.955 75.8182 170.652 58.5758 176.045 44.2727C181.5 29.9697 189.318 19.0606 199.5 11.5455C209.742 4.0303 221.985 0.27272 236.227 0.27272C250.47 0.27272 262.682 4.0606 272.864 11.6364C283.045 19.1515 290.833 30.0606 296.227 44.3636C301.682 58.6061 304.409 75.8182 304.409 96C304.409 116.303 301.712 133.636 296.318 148C290.924 162.303 283.136 173.242 272.955 180.818C262.773 188.333 250.53 192.091 236.227 192.091ZM236.227 167.818C248.833 167.818 258.682 161.667 265.773 149.364C272.924 137.061 276.5 119.273 276.5 96C276.5 80.5455 274.864 67.4848 271.591 56.8182C268.379 46.0909 263.742 37.9697 257.682 32.4545C251.682 26.8788 244.53 24.0909 236.227 24.0909C223.682 24.0909 213.833 30.2727 206.682 42.6364C199.53 55 195.924 72.7879 195.864 96C195.864 111.515 197.47 124.636 200.682 135.364C203.955 146.03 208.591 154.121 214.591 159.636C220.591 165.091 227.803 167.818 236.227 167.818ZM332.75 152.636V129.909L413.205 2.81818H431.114V36.2727H419.75L362.205 127.364V128.818H472.477V152.636H332.75ZM421.023 189V145.727L421.205 135.364V2.81818H447.841V189H421.023Z" fill="#101828"/>
</svg>
