<svg width="220" height="220" viewBox="0 0 220 220" fill="none" xmlns="http://www.w3.org/2000/svg">
<g id="carbon:no-image">
<path id="Vector" d="M206.25 23.4713L196.529 13.75L13.75 196.529L23.4713 206.25L37.2213 192.5H178.75C182.395 192.495 185.889 191.044 188.467 188.467C191.044 185.889 192.495 182.395 192.5 178.75V37.2213L206.25 23.4713ZM178.75 178.75H50.9712L104.548 125.173L120.904 141.529C123.482 144.106 126.979 145.555 130.625 145.555C134.271 145.555 137.768 144.106 140.346 141.529L151.25 130.625L178.75 158.104V178.75ZM178.75 138.655L160.971 120.876C158.393 118.299 154.896 116.85 151.25 116.85C147.604 116.85 144.107 118.299 141.529 120.876L130.625 131.78L114.283 115.438L178.75 50.9712V138.655ZM41.25 151.25V130.625L75.625 96.2706L85.0644 105.717L94.7994 95.9819L85.3462 86.5288C82.7677 83.951 79.271 82.5029 75.625 82.5029C71.979 82.5029 68.4823 83.951 65.9038 86.5288L41.25 111.183V41.25H151.25V27.5H41.25C37.6044 27.5036 34.1091 28.9535 31.5313 31.5313C28.9535 34.1091 27.5036 37.6044 27.5 41.25V151.25H41.25Z" fill="#EEF1FB"/>
</g>
</svg>
